<svg xmlns="http://www.w3.org/2000/svg" width="1460.105" height="1685.797" viewBox="0 0 1460.105 1685.797">
  <path id="blob_1" d="M962.6,175.1c176.038-25.221,358.568,81.836,468.174,225.395,99.271,130.023,38.754,313.005,67.026,475.6,28.37,163.162,138.607,311.359,97.685,471.69-48.916,191.651-156.507,388.9-335.992,461.988-181.2,73.782-381.83-14.48-559.2-97.481-163.33-76.43-303.42-191.653-395.946-349.479-94.07-160.46-180.531-354.027-120.058-530.7,57.951-169.3,273.291-197.531,408.351-311.542C725.414,408.5,792.317,199.5,962.6,175.1" transform="translate(-154.247 -161.391)" fill="#e05151" stroke="#a4d6d5" stroke-width="20"/>
</svg>
