<svg xmlns="http://www.w3.org/2000/svg" width="1290" height="1467.441" viewBox="0 0 1290 1467.441">
  <path id="blob_3" d="M807.434,188.543c131.2-32.3,269.76,27.981,384.545,99.269,115.862,71.956,209.236,177.3,262.768,302.746,52.766,123.647,86.166,269.563,34.409,393.635-49.63,118.976-201.2,149.048-296.844,235.481-80.349,72.612-129.361,170.324-219.172,230.842-118.7,79.988-240.673,192.4-382.717,174.735-143.049-17.8-278.53-129.622-331.707-263.607-51.63-130.087,57.819-266.33,65.929-406.053C330.6,852.92,261.319,749.72,299.769,654.334c38.852-96.383,151.594-132.81,228.166-203.066,96.164-88.232,152.774-231.531,279.5-262.725" transform="translate(-235.042 -169.605)" fill="#e05151" stroke="#4b3434" stroke-width="20"/>
</svg>
