<svg xmlns="http://www.w3.org/2000/svg" width="260" height="51.647" viewBox="0 0 260 51.647">
  <g id="footer-logo" transform="translate(-67.373 -414.118)">
    <g id="Group_3210" data-name="Group 3210" transform="translate(147.127 460.959)">
      <path id="Path_3271" data-name="Path 3271" d="M332.789,570.226h.648l1.016,3.95,1.122-3.95h.682l1.069,3.936,1.022-3.936H339l-1.35,4.658h-.682l-1.083-3.749-1.123,3.749-.675.007Z" transform="translate(-332.789 -570.157)" fill="#1a1a1a"/>
      <path id="Path_3272" data-name="Path 3272" d="M361.756,570.7h-1.9v1.557h1.7v.5h-1.7v1.606h1.9v.5H359.25V570.2h2.506Z" transform="translate(-351.299 -570.141)" fill="#1a1a1a"/>
      <path id="Path_3273" data-name="Path 3273" d="M384.317,570.226v4.168h1.631v.5h-2.239v-4.658Z" transform="translate(-368.407 -570.157)" fill="#1a1a1a"/>
      <path id="Path_3274" data-name="Path 3274" d="M398.456,574.805a2.382,2.382,0,1,1,2.339-2.382,2.3,2.3,0,0,1-2.339,2.382Zm0-.528a1.856,1.856,0,1,0-1.718-1.851,1.7,1.7,0,0,0,1.718,1.851Z" transform="translate(-377.086 -570.032)" fill="#1a1a1a"/>
      <path id="Path_3275" data-name="Path 3275" d="M420.259,570.226h.641l-1.758,4.658h-.7l-1.758-4.658h.648l1.464,4.016Z" transform="translate(-391.474 -570.157)" fill="#1a1a1a"/>
      <path id="Path_3276" data-name="Path 3276" d="M439,570.7h-1.9v1.557h1.7v.5h-1.7v1.606H439v.5h-2.506V570.2H439Z" transform="translate(-405.332 -570.141)" fill="#1a1a1a"/>
      <path id="Path_3277" data-name="Path 3277" d="M460,570.226h3.154v.5h-1.268v4.168h-.608v-4.168H460Z" transform="translate(-421.773 -570.157)" fill="#1a1a1a"/>
      <path id="Path_3278" data-name="Path 3278" d="M478.124,574.805a2.382,2.382,0,1,1,2.339-2.382,2.3,2.3,0,0,1-2.339,2.382Zm0-.528a1.856,1.856,0,1,0-1.718-1.851,1.7,1.7,0,0,0,1.718,1.851Z" transform="translate(-432.814 -570.032)" fill="#1a1a1a"/>
      <path id="Path_3279" data-name="Path 3279" d="M508.235,574.789c-.936,0-1.6-.521-1.611-1.29h.648a.863.863,0,0,0,.962.775c.588,0,.936-.333.936-.775,0-1.256-2.521-.455-2.521-2.183,0-.768.622-1.29,1.544-1.29a1.389,1.389,0,0,1,1.544,1.2h-.668a.844.844,0,0,0-.9-.675c-.5-.014-.893.247-.893.749,0,1.2,2.513.455,2.513,2.183a1.4,1.4,0,0,1-1.552,1.31Z" transform="translate(-454.387 -570.016)" fill="#1a1a1a"/>
      <path id="Path_3280" data-name="Path 3280" d="M526.186,570.7h-1.9v1.557h1.694v.5h-1.7v1.606h1.9v.5h-2.5V570.2h2.506Z" transform="translate(-466.317 -570.141)" fill="#1a1a1a"/>
      <path id="Path_3281" data-name="Path 3281" d="M540.149,570.226c1.092,0,1.618.608,1.618,1.37a1.314,1.314,0,0,1-1.109,1.337l1.17,1.951H541.1l-1.11-1.9h-.735v1.9h-.608v-4.658Zm0,.5h-.893v1.765h.893c.689,0,.992-.374.992-.893s-.3-.866-.992-.866Z" transform="translate(-476.786 -570.157)" fill="#1a1a1a"/>
      <path id="Path_3282" data-name="Path 3282" d="M558.073,570.226h.642l-1.758,4.658h-.7l-1.757-4.658h.647l1.464,4.016Z" transform="translate(-487.876 -570.157)" fill="#1a1a1a"/>
      <path id="Path_3283" data-name="Path 3283" d="M576.817,570.7h-1.9v1.557h1.7v.5h-1.7v1.606h1.9v.5h-2.506V570.2h2.506Z" transform="translate(-501.734 -570.141)" fill="#1a1a1a"/>
      <path id="Path_3284" data-name="Path 3284" d="M597.48,570.226h.675l1.149,2.359,1.149-2.359h.676l-1.517,2.9v1.758H599v-1.758Z" transform="translate(-517.941 -570.157)" fill="#1a1a1a"/>
      <path id="Path_3285" data-name="Path 3285" d="M616.894,574.805a2.382,2.382,0,1,1,2.339-2.382,2.3,2.3,0,0,1-2.339,2.382Zm0-.528a1.856,1.856,0,1,0-1.718-1.851,1.7,1.7,0,0,0,1.718,1.851Z" transform="translate(-529.885 -570.032)" fill="#1a1a1a"/>
      <path id="Path_3286" data-name="Path 3286" d="M636.3,570.226h.608v2.947a1.065,1.065,0,0,0,1.149,1.223c.689,0,1.143-.367,1.143-1.223v-2.947h.608v2.94a1.755,1.755,0,1,1-3.508,0Z" transform="translate(-545.096 -570.157)" fill="#1a1a1a"/>
      <path id="Path_3287" data-name="Path 3287" d="M665.066,574.924a.415.415,0,1,1,.4-.414.408.408,0,0,1-.4.414Zm-.354-4.7h.655l-.073,3.341h-.508Z" transform="translate(-564.928 -570.157)" fill="#1a1a1a"/>
    </g>
    <path id="Path_3288" data-name="Path 3288" d="M318.116,491.049a9.806,9.806,0,0,1,2.888.434,7.76,7.76,0,0,1,2.524,1.3,6.55,6.55,0,0,1,1.792,2.168,6.48,6.48,0,0,1,.678,3.036v6.451a6.411,6.411,0,0,1-.695,3.076,6.55,6.55,0,0,1-1.81,2.149,7.659,7.659,0,0,1-2.546,1.263,10.428,10.428,0,0,1-5.694.038,6.981,6.981,0,0,1-2.414-1.191,5.985,5.985,0,0,1-1.7-2.074,6.641,6.641,0,0,1-.641-3.036v-5.731h10.222v-.867a1.913,1.913,0,0,0-.9-1.716,3.672,3.672,0,0,0-2.036-.584,4.458,4.458,0,0,0-1.754.357,2.7,2.7,0,0,0-1.3,1.112l-3.432-2.489a6.053,6.053,0,0,1,1.376-1.755,7.619,7.619,0,0,1,1.735-1.131,8.094,8.094,0,0,1,1.886-.622,9.517,9.517,0,0,1,1.823-.19Zm-2.679,13.538a1.694,1.694,0,0,0,.794,1.527,3.2,3.2,0,0,0,1.772.509,3.555,3.555,0,0,0,1.867-.509,1.7,1.7,0,0,0,.848-1.565v-1.74h-5.28Z" transform="translate(-170.07 -53.814)" fill="#05ddd7"/>
    <path id="Path_3289" data-name="Path 3289" d="M380.023,491.049a12.915,12.915,0,0,1,2.754.378v4.224a5.77,5.77,0,0,0-1.472-.189h-.264a5.19,5.19,0,0,0-1.678.339,3.152,3.152,0,0,0-1.263.867,2.053,2.053,0,0,0-.49,1.4v12.9h-5.242V497.989a6.437,6.437,0,0,1,.695-3.055,6.6,6.6,0,0,1,1.792-2.168,7.841,7.841,0,0,1,2.469-1.282,8.959,8.959,0,0,1,2.7-.435Z" transform="translate(-213.348 -53.814)" fill="#05ddd7"/>
    <path id="Path_3290" data-name="Path 3290" d="M422.373,492.306h5.619l-6.977,19.534h-4.94l-6.94-19.534h5.582l2.941,9.843.83,5.053h.113l.831-5.053Z" transform="translate(-239.067 -54.693)" fill="#05ddd7"/>
    <path id="Path_3291" data-name="Path 3291" d="M474.4,505.153a6.6,6.6,0,0,1,.584-2.9,5.657,5.657,0,0,1,1.545-1.985,6.234,6.234,0,0,1,2.225-1.131,9.427,9.427,0,0,1,2.58-.357,10.519,10.519,0,0,1,3.473.6v-1.4a2.344,2.344,0,0,0-.905-2.131,3.805,3.805,0,0,0-2.112-.584,5.351,5.351,0,0,0-2.244.528,5.994,5.994,0,0,0-1.868,1.282l-2.563-2.753a9.155,9.155,0,0,1,3.262-2.489,9.985,9.985,0,0,1,3.789-.794,9.812,9.812,0,0,1,2.848.415,7.145,7.145,0,0,1,2.451,1.282,6.557,6.557,0,0,1,1.735,2.167,6.728,6.728,0,0,1,.66,3.076V509.9a25.35,25.35,0,0,1-3.64,1.037,18.231,18.231,0,0,1-3.714.4q-4.149,0-6.128-1.678A5.606,5.606,0,0,1,474.4,505.153Zm7.882-2.528a3.13,3.13,0,0,0-2.206.66,2.255,2.255,0,0,0-.695,1.716,2.084,2.084,0,0,0,.735,1.678,3.549,3.549,0,0,0,2.319.622,8.849,8.849,0,0,0,2.225-.264v-3.96a6.092,6.092,0,0,0-1.092-.32,6.344,6.344,0,0,0-1.29-.131Z" transform="translate(-284.717 -53.814)" fill="#05ddd7"/>
    <path id="Path_3292" data-name="Path 3292" d="M545.446,491.049a12.655,12.655,0,0,1,3.187.4,8.138,8.138,0,0,1,2.715,1.244,6.241,6.241,0,0,1,1.9,2.206,6.946,6.946,0,0,1,.716,3.281v12.784h-5.2v-12.6a2.215,2.215,0,0,0-.924-1.98,3.592,3.592,0,0,0-2.054-.622,4.319,4.319,0,0,0-2.149.528v14.67H538.4V492.747a17.4,17.4,0,0,1,3.432-1.244,14.873,14.873,0,0,1,3.614-.453Z" transform="translate(-329.487 -53.814)" fill="#05ddd7"/>
    <path id="Path_3293" data-name="Path 3293" d="M608.811,502.046h-.453a5.916,5.916,0,0,1-2.942-.942,5.459,5.459,0,0,1-1.942-2.395,9.384,9.384,0,0,1-.695-3.828V477.873h4.828l.377,4.337h3.473V487h-3.473v7.84a2.329,2.329,0,0,0,.943,2.225,3.112,3.112,0,0,0,1.471.3,8.456,8.456,0,0,0,1.623-.187v4.3A10.161,10.161,0,0,1,608.811,502.046Z" transform="translate(-374.519 -44.597)" fill="#05ddd7"/>
    <g id="Group_3211" data-name="Group 3211" transform="translate(257.424 437.213)">
      <path id="Path_3294" data-name="Path 3294" d="M699.84,547.827a1.8,1.8,0,1,1,.528,1.282,1.745,1.745,0,0,1-.528-1.282Z" transform="translate(-699.84 -529.478)" fill="#ffa42c"/>
      <path id="Path_3295" data-name="Path 3295" d="M732.579,493.084a7.844,7.844,0,0,0-1.943.244,5.226,5.226,0,0,0-1.7.754,3.987,3.987,0,0,0-1.191,1.282,3.635,3.635,0,0,0-.452,1.867v7.919a3.627,3.627,0,0,0,.452,1.866,3.982,3.982,0,0,0,1.191,1.282,5.189,5.189,0,0,0,1.7.754,7.81,7.81,0,0,0,1.942.245,7.1,7.1,0,0,0,3.186-.736,3.573,3.573,0,0,0,1.942-2.283l1.924.867A5.309,5.309,0,0,1,738.519,509a6.485,6.485,0,0,1-1.678,1.3,8.419,8.419,0,0,1-2.036.772,9.428,9.428,0,0,1-4.921-.132,7.269,7.269,0,0,1-2.376-1.191,6.1,6.1,0,0,1-1.678-1.985,5.743,5.743,0,0,1-.641-2.772v-7.618a5.743,5.743,0,0,1,.641-2.772,6.094,6.094,0,0,1,1.678-1.985,7.268,7.268,0,0,1,2.376-1.191,9.464,9.464,0,0,1,2.7-.4,9.258,9.258,0,0,1,3.865.83,6.048,6.048,0,0,1,2.81,2.527l-1.772,1.056a3.938,3.938,0,0,0-2-1.786A7.268,7.268,0,0,0,732.579,493.084Z" transform="translate(-717.57 -491.027)" fill="#ffa42c"/>
      <path id="Path_3296" data-name="Path 3296" d="M783.04,497.422a5.744,5.744,0,0,1,.641-2.772,6.1,6.1,0,0,1,1.678-1.985,7.562,7.562,0,0,1,2.376-1.206,9.178,9.178,0,0,1,2.734-.415,9,9,0,0,1,2.715.415,7.615,7.615,0,0,1,2.357,1.206,6.1,6.1,0,0,1,1.677,1.985,5.742,5.742,0,0,1,.641,2.772v7.542a5.854,5.854,0,0,1-.641,2.791,6.042,6.042,0,0,1-1.677,2,7.313,7.313,0,0,1-2.357,1.191,9.4,9.4,0,0,1-2.715.4,9.59,9.59,0,0,1-2.734-.4,7.267,7.267,0,0,1-2.376-1.191,6.035,6.035,0,0,1-1.678-2,5.856,5.856,0,0,1-.641-2.791Zm7.43-4.336a7.623,7.623,0,0,0-1.924.244,5.472,5.472,0,0,0-1.7.754,4.028,4.028,0,0,0-1.226,1.3,3.686,3.686,0,0,0-.471,1.923v7.731a3.689,3.689,0,0,0,.471,1.924,4.223,4.223,0,0,0,1.226,1.32,5.211,5.211,0,0,0,1.7.773,7.6,7.6,0,0,0,1.924.245,7.453,7.453,0,0,0,1.886-.245,5.223,5.223,0,0,0,1.7-.773,4.248,4.248,0,0,0,1.227-1.32,3.7,3.7,0,0,0,.471-1.924v-7.731a3.7,3.7,0,0,0-.471-1.923,4.049,4.049,0,0,0-1.227-1.3,5.488,5.488,0,0,0-1.7-.754,7.477,7.477,0,0,0-1.886-.246Z" transform="translate(-758.038 -491.027)" fill="#ffa42c"/>
      <path id="Path_3297" data-name="Path 3297" d="M853.65,491.049a9.924,9.924,0,0,1,3.451.6,5.99,5.99,0,0,1,2.734,2.036,6.324,6.324,0,0,1,2.64-2.018,8.127,8.127,0,0,1,3.054-.622,9.669,9.669,0,0,1,2.791.4,6.725,6.725,0,0,1,2.338,1.226,5.888,5.888,0,0,1,1.6,2.056,6.551,6.551,0,0,1,.583,2.847v13.387H870.7V497.575a4.57,4.57,0,0,0-.434-2.093,3.944,3.944,0,0,0-1.131-1.376,4.634,4.634,0,0,0-1.621-.774,7.416,7.416,0,0,0-1.9-.244,6.131,6.131,0,0,0-1.622.226,5.442,5.442,0,0,0-1.508.66,3.683,3.683,0,0,0-1.112,1.092,2.715,2.715,0,0,0-.434,1.527V510.96h-2.074V496.743a2.787,2.787,0,0,0-.49-1.64,3.987,3.987,0,0,0-1.263-1.15,5.853,5.853,0,0,0-1.754-.66,9.7,9.7,0,0,0-2-.207,8.969,8.969,0,0,0-2.283.282,4.833,4.833,0,0,0-1.753.812V510.96h-2.151V492.708a13.62,13.62,0,0,1,2.977-1.191,13.073,13.073,0,0,1,3.507-.468Z" transform="translate(-802.896 -491.027)" fill="#ffa42c"/>
    </g>
    <path id="Path_3298" data-name="Path 3298" d="M315.317,558.811c.088,0,.115.067.11.153-.011.185-.037.37-.042.553-.025.807-.108,1.61-.135,2.416a4.693,4.693,0,0,1-.031.538c-.064.432-.054.869-.09,1.3-.03.369-.073.737-.082,1.109a.105.105,0,0,1-.107.118,1.215,1.215,0,0,1-.268.009c-.455-.073-.915-.059-1.371-.1-.15-.014-.219-.048-.207-.208.029-.4.053-.785.084-1.176.051-.644.056-1.29.109-1.932.016-.191.018-.382.03-.574.032-.5.059-1,.1-1.5a2.7,2.7,0,0,1,.085-.8C314.116,558.7,314.715,558.8,315.317,558.811Zm-1.242,5.839a.348.348,0,0,0,.285-.316.306.306,0,0,0-.31-.241.279.279,0,0,0,.025.557Z" transform="translate(-171.884 -101.145)" fill="#05ddd7"/>
    <path id="Path_3299" data-name="Path 3299" d="M233.755,549.977c.3-.471.621-.42,1.022-.21a17.8,17.8,0,0,1,2.168,1.429c.828.6,1.646,1.21,2.469,1.816.048.035.088.083.163.067.07-.073.033-.168.033-.253a1.065,1.065,0,0,1,.061-.441c.06-.134,0-.2-.1-.264-.615-.409-1.209-.846-1.8-1.29A20.2,20.2,0,0,0,235.14,549a1.572,1.572,0,0,0-1.087-.209c-.422.088-.544.256-.487.682a1.428,1.428,0,0,0,.19.506Z" transform="translate(-116.246 -94.186)" fill="#ffa42c"/>
    <path id="Path_3300" data-name="Path 3300" d="M241.4,550.151a11.208,11.208,0,0,1-3.275-2.539,1.629,1.629,0,0,0-.21.016.437.437,0,0,0-.339.2c.06.11.171.1.254.137a9.92,9.92,0,0,1,1.739,1.1c.568.413,1.116.852,1.687,1.267.412.3.841.582,1.258.875.073.051.13.073.205.008a1.421,1.421,0,0,1,.5-.274.116.116,0,0,0,.038-.022,12.838,12.838,0,0,1-1.853-.768Z" transform="translate(-119.065 -93.38)" fill="#ffa42c"/>
    <path id="Path_3301" data-name="Path 3301" d="M256.239,482.915a6.837,6.837,0,0,0-1.985-2.542,9.235,9.235,0,0,0-2.9-1.528,32.055,32.055,0,0,0-3.374-.869c-.58-.123-1.144-.239-1.7-.355a5.947,5.947,0,0,1-1.471-.5,2.993,2.993,0,0,1-1.036-.812,2.043,2.043,0,0,1-.4-1.318v-.037a2.339,2.339,0,0,1,.384-1.191,2.532,2.532,0,0,1,.9-.826,4.479,4.479,0,0,1,1.29-.478,7.693,7.693,0,0,1,1.506-.145,5.171,5.171,0,0,1,2.449.6,5.574,5.574,0,0,1,2,1.92l4.565-3.05a9.958,9.958,0,0,0-4.057-3.622,11.6,11.6,0,0,0-4.955-1.092,12.585,12.585,0,0,0-3.506.5,9.925,9.925,0,0,0-3.043,1.449,8.078,8.078,0,0,0-2.2,2.412,7.235,7.235,0,0,0-.978,3.339V475a7.754,7.754,0,0,0,.717,3.506,7.067,7.067,0,0,0,1.9,2.492,8.732,8.732,0,0,0,2.717,1.506,16.129,16.129,0,0,0,3.115.753c.681.1,1.34.217,1.978.34a6.375,6.375,0,0,1,1.658.551,3.187,3.187,0,0,1,1.116.92,2.023,2.023,0,0,1,.376,1.245,2.4,2.4,0,0,1-1.245,2.224,4.922,4.922,0,0,1-2.6.681h-.189a7.84,7.84,0,0,1-3.13-.775,5.719,5.719,0,0,1-2.492-2.166l-4.187,3.2a11,11,0,0,0,4.187,3.833,11.448,11.448,0,0,0,1.557.652c.1.035.2.065.3.1a5.287,5.287,0,0,1,.794-.112c.283-.029.565-.051.841-.066.573-.044,1.115-.08,1.659-.16a6.009,6.009,0,0,0,.869-.2,5.066,5.066,0,0,0,.666-.283,6.868,6.868,0,0,1,.667-.283c.42-.152.834-.312,1.232-.5a6.506,6.506,0,0,1,2.55-.608,2.949,2.949,0,0,1,.377.022l.13.022a4.918,4.918,0,0,1,.893.126c.054-.047.11-.09.162-.14a7.923,7.923,0,0,0,1.456-1.724,7.443,7.443,0,0,0,1.092-3.318v-.6a7.752,7.752,0,0,0-.649-3.325Z" transform="translate(-118.975 -37.047)" fill="#05ddd7"/>
    <path id="Path_3302" data-name="Path 3302" d="M258.04,559.276a9.3,9.3,0,0,0,.086-1.141c.046-.589.089-1.179.115-1.768.021-.465.077-.929.081-1.4,0-.256.038-.512.06-.768s.013-.248-.228-.291a11.882,11.882,0,0,1-2.138-.584,21.656,21.656,0,0,1-2.815-1.408,4.239,4.239,0,0,0-1.862-.531c-.155-.008-.306-.045-.463-.042a5.8,5.8,0,0,0-2.265.55c-.42.186-.848.352-1.281.508-.467.168-.893.434-1.37.578a6.836,6.836,0,0,1-.974.229c-.843.125-1.693.152-2.54.226a3.463,3.463,0,0,0-1.443.389.842.842,0,0,0-.429.721,1.5,1.5,0,0,0,1.348,1.581c.514.082,1.028.143,1.547.175a14.476,14.476,0,0,0,2.393-.048,9.509,9.509,0,0,0,1.1-.172,3.21,3.21,0,0,0,1.324-.605c.024-.018.046-.039.07-.055.045-.029.091-.039.125.013s0,.077-.035.107a2.325,2.325,0,0,1-.643.419,5.494,5.494,0,0,1-1.643.408,19.249,19.249,0,0,1-2.567.078,6.828,6.828,0,0,1-2.116-.283,1.519,1.519,0,0,1-.836-.695,1.663,1.663,0,0,0-.482-.512c-1.157-.867-2.313-1.737-3.508-2.549a8.332,8.332,0,0,0-1.144-.7,1.908,1.908,0,0,0-.3-.116.378.378,0,0,0-.468.362,1.191,1.191,0,0,0,.33.882,18.212,18.212,0,0,0,2.149,2.16c.588.526,1.191,1.039,1.808,1.53a31.942,31.942,0,0,0,3.535,2.535,5.136,5.136,0,0,0,1.956.71,5.533,5.533,0,0,0,1.866-.136c.468-.1.926-.233,1.389-.341.663-.154,1.331-.284,2-.423a17.737,17.737,0,0,1,2.663-.36,17.4,17.4,0,0,1,2.119.019,11.6,11.6,0,0,1,3.422.718A.666.666,0,0,1,258.04,559.276Z" transform="translate(-117.071 -95.993)" fill="#ffa42c"/>
    <g id="Group_3212" data-name="Group 3212" transform="translate(197.291 414.118)">
      <path id="Path_3303" data-name="Path 3303" d="M565.016,453.628a3.561,3.561,0,0,1,1.816,2.878v.068h4.927q.009-.856.019-1.712.009-.838.018-1.675a6.6,6.6,0,0,0-.1-1.953,3.692,3.692,0,0,0-1.047-1.5,16.121,16.121,0,0,0-1.337-1.179c-.622-.5-1.267-.972-1.932-1.412a.141.141,0,0,0-.026-.011c-1.461-1.072-2.944-2.115-4.411-3.176-.186-.135-.378-.262-.576-.381-1.9-1.146-2.646-1.092-4.01.626a59.6,59.6,0,0,0-3.83,5.316,2.3,2.3,0,0,1-2.609,1.3,3.159,3.159,0,0,0-.718-.027V453.7a25.557,25.557,0,0,0,3.266-.048,2.537,2.537,0,0,0,1.444-.957c.933-1.161,1.758-2.41,2.7-3.722C560.757,450.551,562.805,452.217,565.016,453.628Z" transform="translate(-535.736 -434.18)" fill="#05ddd7"/>
      <path id="Path_3304" data-name="Path 3304" d="M551.412,415.65a.854.854,0,0,0-.186-.051,11.252,11.252,0,0,0-2.239.091c-1.351-1.641-1.961-1.886-4.079-1.25-2.124.618-2.5,1.155-2.744,3.267a11.258,11.258,0,0,0-1.929,1.141.853.853,0,0,0-.128.143,1.022,1.022,0,0,0,.827,1.561h.138a2.766,2.766,0,0,0,1.306-.513,14.642,14.642,0,0,1,7.7-2.276,2.762,2.762,0,0,0,1.375-.279c.04-.023.077-.049.115-.075a1.022,1.022,0,0,0-.156-1.76Z" transform="translate(-527.853 -414.118)" fill="#05ddd7"/>
      <path id="Path_3305" data-name="Path 3305" d="M558.37,430.436a3.921,3.921,0,0,0-2.335-.257,12.8,12.8,0,0,0-4.487,1.6,1.042,1.042,0,0,0-.586,1.3,3.941,3.941,0,0,0,2.9,2.954,3.743,3.743,0,0,0,4.084-1.1,3.665,3.665,0,0,0,.871-4.124A.843.843,0,0,0,558.37,430.436Z" transform="translate(-535.531 -425.304)" fill="#05ddd7"/>
      <path id="Path_3306" data-name="Path 3306" d="M513.718,461.774v-2.909c-2.735.644-2.887-1.51-3.586-3.011-.842-1.807-.893-1.825-2.733-.876a1.94,1.94,0,0,1-1.545-.176c-1.22-.71-1.85-.6-2.4.651-.29.653-.551,1.317-.818,1.98a2.754,2.754,0,0,1-.815,1.246c-.574.423-1.8-.013-2.049.831a1.317,1.317,0,0,0-.024.514,3.582,3.582,0,0,0,.342,1.176,1.168,1.168,0,0,0,.256.369c.342.3.809.2,1.226.185.53-.021,1.07,0,1.6.009q1.74.012,3.479.014Q510.185,461.779,513.718,461.774Z" transform="translate(-499.732 -442.263)" fill="#05ddd7"/>
    </g>
    <g id="Group_3213" data-name="Group 3213" transform="translate(67.373 430.063)">
      <path id="Path_3307" data-name="Path 3307" d="M67.375,480.483V467.525c0-.253.045-.346.328-.345q5.068.017,10.137.007A9.736,9.736,0,0,1,82.13,468a8.753,8.753,0,0,1,5.123,6.848,9.062,9.062,0,0,1-1.661,7.093,8.621,8.621,0,0,1-6.621,3.582c-1.917.126-3.838.033-5.756.047-.273,0-.36.053-.359.346.013,2.527,0,5.053.014,7.581,0,.263-.068.321-.324.319q-2.423-.019-4.848,0c-.255,0-.326-.057-.325-.32Q67.383,486.99,67.375,480.483Zm5.483-3.909v3.554c0,.176.026.265.234.262,1.753-.022,3.506.054,5.26-.036a3.759,3.759,0,0,0,3.465-4.735,3.689,3.689,0,0,0-3.473-2.837c-1.752-.049-3.505-.019-5.26-.033-.217,0-.228.1-.227.269q0,1.777,0,3.555Z" transform="translate(-67.373 -467.18)" fill="#05ddd7"/>
      <path id="Path_3308" data-name="Path 3308" d="M178.032,500.852c0-1.056-.012-2.113,0-3.169a6.2,6.2,0,0,1,3.98-5.972,8.5,8.5,0,0,1,8.557.686,5.963,5.963,0,0,1,2.753,5.14c.023,2.15.017,4.3.006,6.451a6.128,6.128,0,0,1-4.063,6.047,8.765,8.765,0,0,1-8.453-.695,5.837,5.837,0,0,1-2.766-4.976c-.037-1.17-.007-2.343-.007-3.515Zm10.171-.086v-3.34a1.539,1.539,0,0,0-.841-1.436,3.255,3.255,0,0,0-3.219-.08,1.633,1.633,0,0,0-.992,1.61c.016.992,0,1.978,0,2.966,0,1.161.006,2.323,0,3.484a1.738,1.738,0,0,0,.557,1.4,2.827,2.827,0,0,0,2.7.687,2.131,2.131,0,0,0,1.793-2.32q0-1.483,0-2.966Z" transform="translate(-144.779 -483.751)" fill="#05ddd7"/>
      <path id="Path_3309" data-name="Path 3309" d="M148.046,495.538a5.717,5.717,0,0,0-2.843-.006,3.856,3.856,0,0,0-1.034.425,2.283,2.283,0,0,0-1.191,2.091q.016,6.05,0,12.1c0,.441.051.373-.387.374q-2.233,0-4.466.006c-.206,0-.281-.04-.28-.265q.011-6.208,0-12.416a6.612,6.612,0,0,1,5.119-6.461,9.443,9.443,0,0,1,4.893-.01c.1.025.178.041.178.173C148.045,492.871,148.046,494.195,148.046,495.538Z" transform="translate(-116.678 -483.882)" fill="#05ddd7"/>
    </g>
    <g id="Group_3214" data-name="Group 3214" transform="translate(238.761 438.713)">
      <path id="Path_3310" data-name="Path 3310" d="M647.067,514.541a18.6,18.6,0,0,1-2.409-.169q-1.29-.172-2.531-.442a22.607,22.607,0,0,1-2.393-.662,11.829,11.829,0,0,1-2-.866l2.481-4.378a20,20,0,0,0,3.566,1.489,11.023,11.023,0,0,0,3.156.509q1.7,0,1.7-.849,0-.442-.679-.781a14.682,14.682,0,0,0-2.58-.815,29.9,29.9,0,0,1-3.191-1.018,7.957,7.957,0,0,1-2.071-1.137,3.746,3.746,0,0,1-1.12-1.383,4.35,4.35,0,0,1-.339-1.786,5.673,5.673,0,0,1,.561-2.512,5.99,5.99,0,0,1,1.578-2,7.27,7.27,0,0,1,2.427-1.308,9.886,9.886,0,0,1,3.076-.458,16.068,16.068,0,0,1,3.853.509,23.669,23.669,0,0,1,4.191,1.489l-2.481,4.108A26.687,26.687,0,0,0,648.7,500.8a8.128,8.128,0,0,0-2.409-.391,2.805,2.805,0,0,0-1.206.221.73.73,0,0,0-.457.695.754.754,0,0,0,.136.457,1.29,1.29,0,0,0,.474.356,6.6,6.6,0,0,0,.934.356q.6.188,1.477.39a26.709,26.709,0,0,1,3.428,1.07,8.939,8.939,0,0,1,2.223,1.222,3.859,3.859,0,0,1,1.191,1.495,4.812,4.812,0,0,1,.356,1.918,5.174,5.174,0,0,1-2.084,4.345A9.147,9.147,0,0,1,647.067,514.541Z" transform="translate(-637.732 -495.971)" fill="#05ddd7"/>
    </g>
  </g>
</svg>
