<svg xmlns="http://www.w3.org/2000/svg" width="354.261" height="343.654" viewBox="0 0 354.261 343.654">
  <g id="pattern_1" transform="translate(840.069 -6401.675) rotate(-45)">
    <circle id="Ellipse_56" data-name="Ellipse 56" cx="18" cy="18" r="18" transform="translate(-5249.186 4254.149)" fill="red"/>
    <circle id="Ellipse_65" data-name="Ellipse 65" cx="19" cy="19" r="19" transform="translate(-4960.186 4245.149) rotate(180)" fill="#ff0401"/>
    <ellipse id="Ellipse_74" data-name="Ellipse 74" cx="19" cy="18.5" rx="19" ry="18.5" transform="translate(-5253.186 4158.149)" fill="#ff0802"/>
    <circle id="Ellipse_83" data-name="Ellipse 83" cx="18" cy="18" r="18" transform="translate(-5257.186 4069.149)" fill="#ff0c03"/>
    <ellipse id="Ellipse_92" data-name="Ellipse 92" cx="18.5" cy="19" rx="18.5" ry="19" transform="translate(-4968.186 4156.149) rotate(180)" fill="#ff1004"/>
    <circle id="Ellipse_54" data-name="Ellipse 54" cx="16" cy="16" r="16" transform="translate(-5202.186 4256.149)" fill="#ff1405"/>
    <circle id="Ellipse_63" data-name="Ellipse 63" cx="17" cy="17" r="17" transform="translate(-5007.186 4243.149) rotate(180)" fill="#ff1706"/>
    <circle id="Ellipse_72" data-name="Ellipse 72" cx="17" cy="17" r="17" transform="translate(-5206.186 4161.149)" fill="#ff1b07"/>
    <circle id="Ellipse_81" data-name="Ellipse 81" cx="17" cy="17" r="17" transform="translate(-5210.186 4071.149)" fill="#ff1f08"/>
    <circle id="Ellipse_90" data-name="Ellipse 90" cx="16" cy="16" r="16" transform="translate(-5017.186 4154.149) rotate(180)" fill="#ff2309"/>
    <ellipse id="Ellipse_55" data-name="Ellipse 55" cx="14.5" cy="14" rx="14.5" ry="14" transform="translate(-5157.186 4258.149)" fill="#ff270a"/>
    <ellipse id="Ellipse_64" data-name="Ellipse 64" cx="14" cy="14.5" rx="14" ry="14.5" transform="translate(-5053.186 4241.149) rotate(180)" fill="#ff2b0c"/>
    <ellipse id="Ellipse_73" data-name="Ellipse 73" cx="14" cy="14.5" rx="14" ry="14.5" transform="translate(-5160.186 4163.149)" fill="#ff2f0d"/>
    <circle id="Ellipse_82" data-name="Ellipse 82" cx="14" cy="14" r="14" transform="translate(-5164.186 4073.149)" fill="#ff330e"/>
    <circle id="Ellipse_91" data-name="Ellipse 91" cx="14" cy="14" r="14" transform="translate(-5062.186 4152.149) rotate(180)" fill="#ff370f"/>
    <ellipse id="Ellipse_53" data-name="Ellipse 53" cx="12.5" cy="12" rx="12.5" ry="12" transform="translate(-5117.186 4258.149)" fill="#ff3b10"/>
    <circle id="Ellipse_62" data-name="Ellipse 62" cx="12.5" cy="12.5" r="12.5" transform="translate(-5092.186 4239.149) rotate(180)" fill="#ff3e11"/>
    <circle id="Ellipse_71" data-name="Ellipse 71" cx="13.5" cy="13.5" r="13.5" transform="translate(-5121.186 4163.149)" fill="#ff4212"/>
    <ellipse id="Ellipse_80" data-name="Ellipse 80" cx="13" cy="13.5" rx="13" ry="13.5" transform="translate(-5124.186 4074.149)" fill="#ff4613"/>
    <circle id="Ellipse_89" data-name="Ellipse 89" cx="12" cy="12" r="12" transform="translate(-5102.186 4150.149) rotate(180)" fill="#ff4a14"/>
    <ellipse id="Ellipse_49" data-name="Ellipse 49" cx="11.5" cy="11" rx="11.5" ry="11" transform="translate(-5081.186 4260.149)" fill="#ff4e15"/>
    <circle id="Ellipse_58" data-name="Ellipse 58" cx="10.5" cy="10.5" r="10.5" transform="translate(-5130.186 4237.149) rotate(180)" fill="#ff5216"/>
    <circle id="Ellipse_67" data-name="Ellipse 67" cx="10.5" cy="10.5" r="10.5" transform="translate(-5083.186 4165.149)" fill="#ff5617"/>
    <circle id="Ellipse_76" data-name="Ellipse 76" cx="11.5" cy="11.5" r="11.5" transform="translate(-5089.186 4076.149)" fill="#ff5a18"/>
    <circle id="Ellipse_85" data-name="Ellipse 85" cx="11" cy="11" r="11" transform="translate(-5138.186 4148.149) rotate(180)" fill="#ff5e19"/>
    <circle id="Ellipse_50" data-name="Ellipse 50" cx="9.5" cy="9.5" r="9.5" transform="translate(-5049.186 4262.149)" fill="#ff621a"/>
    <circle id="Ellipse_59" data-name="Ellipse 59" cx="9.5" cy="9.5" r="9.5" transform="translate(-5162.186 4235.149) rotate(180)" fill="#ff661b"/>
    <circle id="Ellipse_68" data-name="Ellipse 68" cx="9.5" cy="9.5" r="9.5" transform="translate(-5051.186 4167.149)" fill="#ff691c"/>
    <circle id="Ellipse_77" data-name="Ellipse 77" cx="8.5" cy="8.5" r="8.5" transform="translate(-5055.186 4078.149)" fill="#ff6d1d"/>
    <circle id="Ellipse_86" data-name="Ellipse 86" cx="9.5" cy="9.5" r="9.5" transform="translate(-5170.186 4146.149) rotate(180)" fill="#ff711e"/>
    <circle id="Ellipse_51" data-name="Ellipse 51" cx="7" cy="7" r="7" transform="translate(-5017.186 4265.149)" fill="#ff751f"/>
    <circle id="Ellipse_60" data-name="Ellipse 60" cx="7.5" cy="7.5" r="7.5" transform="translate(-5193.186 4233.149) rotate(180)" fill="#ff7920"/>
    <circle id="Ellipse_69" data-name="Ellipse 69" cx="7.5" cy="7.5" r="7.5" transform="translate(-5020.186 4169.149)" fill="#ff7d22"/>
    <circle id="Ellipse_78" data-name="Ellipse 78" cx="6.5" cy="6.5" r="6.5" transform="translate(-5024.186 4080.149)" fill="#ff8123"/>
    <circle id="Ellipse_87" data-name="Ellipse 87" cx="7.5" cy="7.5" r="7.5" transform="translate(-5200.186 4144.149) rotate(180)" fill="#ff8524"/>
    <ellipse id="Ellipse_48" data-name="Ellipse 48" cx="5.5" cy="6" rx="5.5" ry="6" transform="translate(-4992.186 4267.149)" fill="#ff8925"/>
    <circle id="Ellipse_57" data-name="Ellipse 57" cx="4.5" cy="4.5" r="4.5" transform="translate(-5219.186 4231.149) rotate(180)" fill="#ff8d26"/>
    <circle id="Ellipse_66" data-name="Ellipse 66" cx="4.5" cy="4.5" r="4.5" transform="translate(-4994.186 4171.149)" fill="#ff9027"/>
    <ellipse id="Ellipse_75" data-name="Ellipse 75" cx="6" cy="5.5" rx="6" ry="5.5" transform="translate(-5000.186 4082.149)" fill="#ff9428"/>
    <ellipse id="Ellipse_84" data-name="Ellipse 84" cx="4.5" cy="5" rx="4.5" ry="5" transform="translate(-5227.186 4143.149) rotate(180)" fill="#ff9829"/>
    <ellipse id="Ellipse_52" data-name="Ellipse 52" cx="3.5" cy="4" rx="3.5" ry="4" transform="translate(-4969.186 4267.149)" fill="#ff9c2a"/>
    <circle id="Ellipse_70" data-name="Ellipse 70" cx="3.5" cy="3.5" r="3.5" transform="translate(-4973.186 4173.149)" fill="#ffa02b"/>
    <ellipse id="Ellipse_79" data-name="Ellipse 79" cx="4" cy="3.5" rx="4" ry="3.5" transform="translate(-4977.186 4084.149)" fill="#ffa42c"/>
  </g>
</svg>
