<svg xmlns="http://www.w3.org/2000/svg" xmlns:xlink="http://www.w3.org/1999/xlink" width="398" height="340" viewBox="0 0 398 340">
  <defs>
    <linearGradient id="linear-gradient" x1="0.428" y1="0.288" x2="0.94" y2="0.921" gradientUnits="objectBoundingBox">
      <stop offset="0" stop-opacity="0.871"/>
      <stop offset="1" stop-color="#545454" stop-opacity="0.839"/>
    </linearGradient>
  </defs>
  <g id="pattern_3" transform="translate(-482 -3771)">
    <circle id="Ellipse_93" data-name="Ellipse 93" cx="17.5" cy="17.5" r="17.5" transform="translate(512 3797)" fill="red"/>
    <circle id="Ellipse_113" data-name="Ellipse 113" cx="15" cy="15" r="15" transform="translate(512 4077) rotate(-90)" fill="red"/>
    <circle id="Ellipse_114" data-name="Ellipse 114" cx="15" cy="15" r="15" transform="translate(834 4077) rotate(180)" fill="red"/>
    <circle id="Ellipse_115" data-name="Ellipse 115" cx="15" cy="15" r="15" transform="translate(843 3800) rotate(90)" fill="red"/>
    <circle id="Ellipse_116" data-name="Ellipse 116" cx="13.5" cy="13.5" r="13.5" transform="translate(800 3863) rotate(180)" fill="#05ddd7"/>
    <circle id="Ellipse_104" data-name="Ellipse 104" cx="15.5" cy="15.5" r="15.5" transform="translate(555 4010)" fill="#05ddd7"/>
    <circle id="Ellipse_117" data-name="Ellipse 117" cx="13.5" cy="13.5" r="13.5" transform="translate(801 4003) rotate(180)" fill="red"/>
    <circle id="Ellipse_94" data-name="Ellipse 94" cx="16" cy="16" r="16" transform="translate(552 3940)" fill="#ffa42c"/>
    <circle id="Ellipse_95" data-name="Ellipse 95" cx="16" cy="16" r="16" transform="translate(548 3873)" fill="red"/>
    <circle id="Ellipse_118" data-name="Ellipse 118" cx="14" cy="14" r="14" transform="translate(794 3938) rotate(180)" fill="red"/>
    <circle id="Ellipse_105" data-name="Ellipse 105" cx="15.5" cy="15.5" r="15.5" transform="translate(557 3798)" fill="#05ddd7"/>
    <circle id="Ellipse_106" data-name="Ellipse 106" cx="14" cy="14" r="14" transform="translate(514 4038) rotate(-90)" fill="#05ddd7"/>
    <circle id="Ellipse_119" data-name="Ellipse 119" cx="13.5" cy="13.5" r="13.5" transform="translate(790 4075) rotate(180)" fill="#05ddd7"/>
    <circle id="Ellipse_120" data-name="Ellipse 120" cx="13.5" cy="13.5" r="13.5" transform="translate(841 3839) rotate(90)" fill="#05ddd7"/>
    <circle id="Ellipse_121" data-name="Ellipse 121" cx="12" cy="12" r="12" transform="translate(759 3862) rotate(180)" fill="#ffa42c"/>
    <ellipse id="Ellipse_122" data-name="Ellipse 122" cx="14" cy="13.5" rx="14" ry="13.5" transform="translate(595 4012)" fill="#ffa42c"/>
    <circle id="Ellipse_123" data-name="Ellipse 123" cx="12" cy="12" r="12" transform="translate(760 4002) rotate(180)" fill="#ffa42c"/>
    <circle id="Ellipse_124" data-name="Ellipse 124" cx="13.5" cy="13.5" r="13.5" transform="translate(593 3941)" fill="#05ddd7"/>
    <circle id="Ellipse_125" data-name="Ellipse 125" cx="13.5" cy="13.5" r="13.5" transform="translate(590 3875)" fill="#05ddd7"/>
    <circle id="Ellipse_126" data-name="Ellipse 126" cx="12" cy="12" r="12" transform="translate(753 3936) rotate(180)" fill="#05ddd7"/>
    <circle id="Ellipse_127" data-name="Ellipse 127" cx="13.5" cy="13.5" r="13.5" transform="translate(600 3800)" fill="#ffa42c"/>
    <circle id="Ellipse_96" data-name="Ellipse 96" cx="12" cy="12" r="12" transform="translate(516 4000) rotate(-90)" fill="#ffa42c"/>
    <circle id="Ellipse_128" data-name="Ellipse 128" cx="12" cy="12" r="12" transform="translate(747 4074) rotate(180)" fill="#ffa42c"/>
    <circle id="Ellipse_129" data-name="Ellipse 129" cx="12" cy="12" r="12" transform="translate(840 3876) rotate(90)" fill="#ffa42c"/>
    <circle id="Ellipse_130" data-name="Ellipse 130" cx="10.5" cy="10.5" r="10.5" transform="translate(721 3860) rotate(180)" fill="#fff"/>
    <circle id="Ellipse_131" data-name="Ellipse 131" cx="12.5" cy="12.5" r="12.5" transform="translate(633 4013)" fill="#fff"/>
    <circle id="Ellipse_132" data-name="Ellipse 132" cx="10.5" cy="10.5" r="10.5" transform="translate(722 4000) rotate(180)" fill="#fff"/>
    <circle id="Ellipse_133" data-name="Ellipse 133" cx="12" cy="12" r="12" transform="translate(631 3943)" fill="#fff"/>
    <circle id="Ellipse_134" data-name="Ellipse 134" cx="12" cy="12" r="12" transform="translate(627 3876)" fill="#fff"/>
    <circle id="Ellipse_135" data-name="Ellipse 135" cx="11" cy="11" r="11" transform="translate(715 3935) rotate(180)" fill="#fff"/>
    <circle id="Ellipse_136" data-name="Ellipse 136" cx="12" cy="12" r="12" transform="translate(638 3801)" fill="#fff"/>
    <circle id="Ellipse_97" data-name="Ellipse 97" cx="10.5" cy="10.5" r="10.5" transform="translate(517 3967) rotate(-90)" fill="#fff"/>
    <circle id="Ellipse_137" data-name="Ellipse 137" cx="10.5" cy="10.5" r="10.5" transform="translate(708 4072) rotate(180)" fill="#fff"/>
    <circle id="Ellipse_138" data-name="Ellipse 138" cx="10.5" cy="10.5" r="10.5" transform="translate(838 3910) rotate(90)" fill="#fff"/>
    <circle id="Ellipse_139" data-name="Ellipse 139" cx="9.5" cy="9.5" r="9.5" transform="translate(687 3860) rotate(180)" fill="#fff"/>
    <circle id="Ellipse_140" data-name="Ellipse 140" cx="11" cy="11" r="11" transform="translate(667 4014)" fill="#fff"/>
    <circle id="Ellipse_141" data-name="Ellipse 141" cx="9.5" cy="9.5" r="9.5" transform="translate(688 4000) rotate(180)" fill="#fff"/>
    <circle id="Ellipse_142" data-name="Ellipse 142" cx="11" cy="11" r="11" transform="translate(665 3944)" fill="#ffa42c"/>
    <ellipse id="Ellipse_143" data-name="Ellipse 143" cx="10.5" cy="11" rx="10.5" ry="11" transform="translate(662 3877)" fill="#fff"/>
    <circle id="Ellipse_144" data-name="Ellipse 144" cx="9.5" cy="9.5" r="9.5" transform="translate(681 3934) rotate(180)" fill="red"/>
    <circle id="Ellipse_145" data-name="Ellipse 145" cx="10.5" cy="10.5" r="10.5" transform="translate(673 3803)" fill="#fff"/>
    <circle id="Ellipse_98" data-name="Ellipse 98" cx="9" cy="9" r="9" transform="translate(520 3937) rotate(-90)" fill="#05ddd7"/>
    <circle id="Ellipse_146" data-name="Ellipse 146" cx="9" cy="9" r="9" transform="translate(674 4071) rotate(180)" fill="#fff"/>
    <circle id="Ellipse_147" data-name="Ellipse 147" cx="9" cy="9" r="9" transform="translate(837 3940) rotate(90)" fill="#ffa42c"/>
    <circle id="Ellipse_148" data-name="Ellipse 148" cx="8.5" cy="8.5" r="8.5" transform="translate(656 3858) rotate(180)" fill="#fff"/>
    <ellipse id="Ellipse_149" data-name="Ellipse 149" cx="10" cy="9.5" rx="10" ry="9.5" transform="translate(698 4016)" fill="red"/>
    <circle id="Ellipse_150" data-name="Ellipse 150" cx="8.5" cy="8.5" r="8.5" transform="translate(657 3998) rotate(180)" fill="#fff"/>
    <circle id="Ellipse_151" data-name="Ellipse 151" cx="9.5" cy="9.5" r="9.5" transform="translate(696 3945)" fill="#fff"/>
    <ellipse id="Ellipse_152" data-name="Ellipse 152" cx="10" cy="9.5" rx="10" ry="9.5" transform="translate(692 3879)" fill="#fff"/>
    <circle id="Ellipse_153" data-name="Ellipse 153" cx="8" cy="8" r="8" transform="translate(650 3932) rotate(180)" fill="#fff"/>
    <circle id="Ellipse_154" data-name="Ellipse 154" cx="8.5" cy="8.5" r="8.5" transform="translate(704 3804)" fill="#fff"/>
    <circle id="Ellipse_99" data-name="Ellipse 99" cx="8" cy="8" r="8" transform="translate(521 3910) rotate(-90)" fill="#fff"/>
    <circle id="Ellipse_155" data-name="Ellipse 155" cx="7.5" cy="7.5" r="7.5" transform="translate(643 4069) rotate(180)" fill="#fff"/>
    <circle id="Ellipse_156" data-name="Ellipse 156" cx="7.5" cy="7.5" r="7.5" transform="translate(834 3967) rotate(90)" fill="#fff"/>
    <circle id="Ellipse_157" data-name="Ellipse 157" cx="7" cy="7" r="7" transform="translate(628 3857) rotate(180)" fill="#fff"/>
    <circle id="Ellipse_158" data-name="Ellipse 158" cx="7.5" cy="7.5" r="7.5" transform="translate(727 4017)" fill="#fff"/>
    <circle id="Ellipse_159" data-name="Ellipse 159" cx="7" cy="7" r="7" transform="translate(630 3997) rotate(180)" fill="#fff"/>
    <circle id="Ellipse_160" data-name="Ellipse 160" cx="8" cy="8" r="8" transform="translate(723 3947)" fill="#fff"/>
    <circle id="Ellipse_161" data-name="Ellipse 161" cx="8" cy="8" r="8" transform="translate(720 3880)" fill="#fff"/>
    <circle id="Ellipse_162" data-name="Ellipse 162" cx="7" cy="7" r="7" transform="translate(623 3931) rotate(180)" fill="#fff"/>
    <circle id="Ellipse_163" data-name="Ellipse 163" cx="7" cy="7" r="7" transform="translate(732 3806)" fill="#fff"/>
    <circle id="Ellipse_100" data-name="Ellipse 100" cx="6.5" cy="6.5" r="6.5" transform="translate(523 3885) rotate(-90)" fill="#fff"/>
    <circle id="Ellipse_164" data-name="Ellipse 164" cx="6" cy="6" r="6" transform="translate(615 4068) rotate(180)" fill="#fff"/>
    <circle id="Ellipse_165" data-name="Ellipse 165" cx="6" cy="6" r="6" transform="translate(833 3992) rotate(90)" fill="#fff"/>
    <circle id="Ellipse_166" data-name="Ellipse 166" cx="5.5" cy="5.5" r="5.5" transform="translate(602 3855) rotate(180)" fill="#fff"/>
    <ellipse id="Ellipse_167" data-name="Ellipse 167" cx="6" cy="6.5" rx="6" ry="6.5" transform="translate(752 4019)" fill="#fff"/>
    <circle id="Ellipse_168" data-name="Ellipse 168" cx="5" cy="5" r="5" transform="translate(603 3995) rotate(180)" fill="#fff"/>
    <ellipse id="Ellipse_169" data-name="Ellipse 169" cx="6" cy="6.5" rx="6" ry="6.5" transform="translate(750 3948)" fill="#fff"/>
    <circle id="Ellipse_170" data-name="Ellipse 170" cx="6.5" cy="6.5" r="6.5" transform="translate(746 3882)" fill="#fff"/>
    <circle id="Ellipse_107" data-name="Ellipse 107" cx="5" cy="5" r="5" transform="translate(596 3929) rotate(180)" fill="#fff"/>
    <ellipse id="Ellipse_171" data-name="Ellipse 171" cx="5.5" cy="5" rx="5.5" ry="5" transform="translate(756 3807)" fill="#fff"/>
    <circle id="Ellipse_101" data-name="Ellipse 101" cx="4.5" cy="4.5" r="4.5" transform="translate(524 3863) rotate(-90)" fill="#fff"/>
    <circle id="Ellipse_172" data-name="Ellipse 172" cx="4.5" cy="4.5" r="4.5" transform="translate(591 4066) rotate(180)" fill="#fff"/>
    <circle id="Ellipse_173" data-name="Ellipse 173" cx="4.5" cy="4.5" r="4.5" transform="translate(831 4013) rotate(90)" fill="#fff"/>
    <circle id="Ellipse_108" data-name="Ellipse 108" cx="4" cy="4" r="4" transform="translate(580 3854) rotate(180)" fill="#fff"/>
    <circle id="Ellipse_174" data-name="Ellipse 174" cx="4.5" cy="4.5" r="4.5" transform="translate(774 4020)" fill="#fff"/>
    <circle id="Ellipse_109" data-name="Ellipse 109" cx="4" cy="4" r="4" transform="translate(582 3994) rotate(180)" fill="#fff"/>
    <ellipse id="Ellipse_175" data-name="Ellipse 175" cx="5" cy="4.5" rx="5" ry="4.5" transform="translate(771 3950)" fill="#fff"/>
    <circle id="Ellipse_176" data-name="Ellipse 176" cx="4.5" cy="4.5" r="4.5" transform="translate(768 3883)" fill="#fff"/>
    <circle id="Ellipse_110" data-name="Ellipse 110" cx="4" cy="4" r="4" transform="translate(575 3928) rotate(180)" fill="#fff"/>
    <circle id="Ellipse_177" data-name="Ellipse 177" cx="3.5" cy="3.5" r="3.5" transform="translate(777 3809)" fill="#fff"/>
    <circle id="Ellipse_102" data-name="Ellipse 102" cx="3" cy="3" r="3" transform="translate(527 3845) rotate(-90)" fill="#fff"/>
    <circle id="Ellipse_178" data-name="Ellipse 178" cx="3" cy="3" r="3" transform="translate(569 4065) rotate(180)" fill="#fff"/>
    <circle id="Ellipse_179" data-name="Ellipse 179" cx="3.5" cy="3.5" r="3.5" transform="translate(830 4031) rotate(90)" fill="#fff"/>
    <circle id="Ellipse_111" data-name="Ellipse 111" cx="3" cy="3" r="3" transform="translate(562 3853) rotate(180)" fill="#fff"/>
    <circle id="Ellipse_180" data-name="Ellipse 180" cx="3" cy="3" r="3" transform="translate(793 4021)" fill="#fff"/>
    <circle id="Ellipse_112" data-name="Ellipse 112" cx="2.5" cy="2.5" r="2.5" transform="translate(562 3993) rotate(180)" fill="#fff"/>
    <circle id="Ellipse_181" data-name="Ellipse 181" cx="3" cy="3" r="3" transform="translate(791 3950)" fill="#fff"/>
    <circle id="Ellipse_182" data-name="Ellipse 182" cx="3" cy="3" r="3" transform="translate(787 3884)" fill="#fff"/>
    <circle id="Ellipse_103" data-name="Ellipse 103" cx="2.5" cy="2.5" r="2.5" transform="translate(555 3927) rotate(180)" fill="#fff"/>
    <g id="Rectangle_22" data-name="Rectangle 22" transform="translate(482 3771)" stroke="#fff" stroke-width="1" fill="url(#linear-gradient)">
      <rect width="398" height="340" rx="16" stroke="none"/>
      <rect x="0.5" y="0.5" width="397" height="339" rx="15.5" fill="none"/>
    </g>
  </g>
</svg>
